<svg xmlns="http://www.w3.org/2000/svg" version="1.1" xmlns:xlink="http://www.w3.org/1999/xlink" xmlns:svgjs="http://svgjs.dev/svgjs" width="1000" height="1000" viewBox="0 0 1000 1000"><rect width="1000" height="1000" fill="#8d021f"></rect><g transform="matrix(0.7,0,0,0.7,149.57575757575756,449.30294531147365)"><svg viewBox="0 0 396 58" data-background-color="#8d021f" preserveAspectRatio="xMidYMid meet" height="146" width="1000" xmlns="http://www.w3.org/2000/svg" xmlns:xlink="http://www.w3.org/1999/xlink"><g id="tight-bounds" transform="matrix(1,0,0,1,0.2400000000000091,-0.22867737833141177)"><svg viewBox="0 0 395.52 58.45735475666282" height="58.45735475666282" width="395.52"><g><svg viewBox="0 0 478.2853744381156 70.68997220988126" height="58.45735475666282" width="395.52"><g transform="matrix(1,0,0,1,0,9.769742903102259)"><svg viewBox="0 0 395.5199999999999 51.150486403676744" height="51.150486403676744" width="395.5199999999999"><g id="textblocktransform"><svg viewBox="0 0 395.5199999999999 51.150486403676744" height="51.150486403676744" width="395.5199999999999" id="textblock"><g><svg viewBox="0 0 395.5199999999999 51.150486403676744" height="51.150486403676744" width="395.5199999999999"><g transform="matrix(1,0,0,1,0,0)"><svg width="395.5199999999999" viewBox="1 -38.11000061035156 382.44000244140625 49.459999084472656" height="51.150486403676744" data-palette-color="#ff5858"><path d="M20.56-24.44L20.56-26.59Q20.43-27.44 19.96-28.2 19.48-28.96 18.74-29.5 17.99-30.05 17.05-30.37 16.11-30.69 15.09-30.69L15.09-30.69Q14.16-30.69 13.35-30.49 12.55-30.3 11.95-29.9 11.35-29.49 11-28.86 10.64-28.22 10.64-27.34L10.64-27.34Q10.64-26.25 11.12-25.6 11.6-24.95 12.34-24.54 13.09-24.12 13.99-23.88 14.89-23.63 15.75-23.34L15.75-23.34 22.46-21.09Q23.85-20.61 25.07-19.75 26.29-18.9 27.19-17.68 28.08-16.46 28.59-14.87 29.1-13.28 29.1-11.3L29.1-11.3Q29.1-8.62 28.11-6.4 27.12-4.17 25.34-2.59 23.56-1 21.07-0.12 18.58 0.76 15.55 0.76L15.55 0.76Q13.43 0.76 11.54 0.28 9.64-0.2 8.08-1.1 6.52-2 5.35-3.26 4.17-4.52 3.52-6.1L3.52-6.1 1-6.1 1-13.45 9.84-13.45 9.84-11.94Q9.84-10.84 10.19-9.91 10.55-8.98 11.25-8.3 11.96-7.62 13.04-7.24 14.11-6.86 15.55-6.86L15.55-6.86Q17.75-6.86 18.9-7.87 20.04-8.89 20.04-10.69L20.04-10.69Q20.04-11.62 19.64-12.24 19.24-12.87 18.6-13.29 17.97-13.72 17.19-14.01 16.41-14.31 15.65-14.55L15.65-14.55 10.06-16.36Q8.47-16.85 6.99-17.72 5.52-18.6 4.38-19.92 3.25-21.24 2.58-23.01 1.9-24.78 1.9-27.05L1.9-27.05Q1.9-29.69 2.88-31.75 3.86-33.81 5.62-35.23 7.37-36.65 9.79-37.38 12.21-38.11 15.09-38.11L15.09-38.11Q17.36-38.11 19.29-37.59 21.22-37.06 22.74-36.18 24.27-35.3 25.33-34.17 26.39-33.03 26.95-31.81L26.95-31.81 29.39-31.81 29.39-24.44 20.56-24.44ZM31.39-18.6L31.39-25.29 44.6-25.29 44.6-18.6 41.75-18.6 44.43-9.59 49.63-25.29 56.78-25.29 62.03-8.79 65.26-18.6 62.55-18.6 62.55-25.29 75.75-25.29 75.75-18.6 72.36-18.6 65.6 0.1 58.3 0.1 53-16.04 47.6 0.1 40.5 0.1 34.23-18.6 31.39-18.6ZM94.23 0L94.23-1.37Q93.38-0.83 92.67-0.45 91.96-0.07 91.25 0.16 90.55 0.39 89.79 0.5 89.03 0.61 88.13 0.61L88.13 0.61Q85.86 0.61 84.06-0.01 82.27-0.63 81.04-1.72 79.8-2.81 79.15-4.28 78.49-5.76 78.49-7.5L78.49-7.5Q78.49-9.25 79.16-10.74 79.83-12.23 81.1-13.29 82.37-14.36 84.21-14.95 86.05-15.55 88.42-15.55L88.42-15.55Q90.16-15.55 91.58-15.37 93.01-15.19 94.23-14.92L94.23-14.92 94.23-15.7Q94.23-16.65 93.87-17.35 93.5-18.04 92.84-18.49 92.18-18.95 91.25-19.15 90.33-19.36 89.23-19.36L89.23-19.36Q86.93-19.36 85.19-18.91 83.44-18.46 81.83-17.6L81.83-17.6 79.49-22.34Q81.98-24.05 84.7-24.95 87.42-25.85 90.47-25.85L90.47-25.85Q92.84-25.85 94.86-25.33 96.87-24.8 98.31-23.62 99.75-22.44 100.57-20.53 101.39-18.63 101.39-15.89L101.39-15.89 101.39-6.69 104.78-6.69 104.78 0 94.23 0ZM88.67-5.15L88.67-5.15Q90.4-5.15 91.82-5.71 93.23-6.27 94.23-7.08L94.23-7.08 94.23-10.3 88.37-10.3Q87.81-10.3 87.28-10.13 86.74-9.96 86.31-9.64 85.88-9.33 85.63-8.86 85.37-8.4 85.37-7.79L85.37-7.79Q85.37-6.67 86.19-5.91 87.01-5.15 88.67-5.15ZM128.7-1.2L128.7-1.32Q127.34-0.54 125.97-0.2 124.6 0.15 123.19 0.15L123.19 0.15Q120.26 0.15 117.79-0.85 115.32-1.86 113.53-3.63 111.74-5.4 110.73-7.81 109.73-10.23 109.73-13.06L109.73-13.06Q109.73-15.72 110.7-18.08 111.66-20.43 113.4-22.2 115.13-23.97 117.55-25 119.96-26.03 122.8-26.05L122.8-26.05Q124.53-26.03 125.98-25.68 127.43-25.34 128.7-24.76L128.7-24.76 128.7-25.29 136.1-25.29 136.1-1.05Q136.1 2.15 135 4.48 133.9 6.81 132.06 8.34 130.22 9.86 127.78 10.61 125.33 11.35 122.65 11.35L122.65 11.35Q119.33 11.35 116.51 10.45 113.69 9.55 111.49 8.01L111.49 8.01 114.54 2.59Q116.23 3.66 118.21 4.28 120.18 4.91 122.6 4.91L122.6 4.91Q123.92 4.91 125.03 4.61 126.14 4.32 126.96 3.63 127.78 2.93 128.24 1.76 128.7 0.59 128.7-1.2L128.7-1.2ZM123.43-6.62L123.43-6.62Q125.14-6.62 126.52-7.48 127.9-8.35 128.7-9.77L128.7-9.77 128.75-15.92Q127.92-17.46 126.48-18.36 125.04-19.26 123.36-19.29L123.36-19.29Q122.16-19.26 121.01-18.81 119.87-18.36 119.02-17.53 118.18-16.7 117.69-15.56 117.2-14.43 117.2-13.04L117.2-13.04Q117.2-11.57 117.69-10.38 118.18-9.18 119.01-8.35 119.84-7.52 120.98-7.07 122.11-6.62 123.43-6.62ZM160.32-1.2L160.32-1.32Q158.95-0.54 157.58-0.2 156.22 0.15 154.8 0.15L154.8 0.15Q151.87 0.15 149.4-0.85 146.94-1.86 145.14-3.63 143.35-5.4 142.35-7.81 141.35-10.23 141.35-13.06L141.35-13.06Q141.35-15.72 142.31-18.08 143.28-20.43 145.01-22.2 146.74-23.97 149.16-25 151.58-26.03 154.41-26.05L154.41-26.05Q156.14-26.03 157.59-25.68 159.05-25.34 160.32-24.76L160.32-24.76 160.32-25.29 167.71-25.29 167.71-1.05Q167.71 2.15 166.62 4.48 165.52 6.81 163.67 8.34 161.83 9.86 159.39 10.61 156.95 11.35 154.26 11.35L154.26 11.35Q150.94 11.35 148.12 10.45 145.3 9.55 143.11 8.01L143.11 8.01 146.16 2.59Q147.84 3.66 149.82 4.28 151.8 4.91 154.21 4.91L154.21 4.91Q155.53 4.91 156.64 4.61 157.75 4.32 158.57 3.63 159.39 2.93 159.85 1.76 160.32 0.59 160.32-1.2L160.32-1.2ZM155.04-6.62L155.04-6.62Q156.75-6.62 158.13-7.48 159.51-8.35 160.32-9.77L160.32-9.77 160.37-15.92Q159.54-17.46 158.1-18.36 156.66-19.26 154.97-19.29L154.97-19.29Q153.77-19.26 152.63-18.81 151.48-18.36 150.64-17.53 149.79-16.7 149.31-15.56 148.82-14.43 148.82-13.04L148.82-13.04Q148.82-11.57 149.31-10.38 149.79-9.18 150.62-8.35 151.45-7.52 152.59-7.07 153.73-6.62 155.04-6.62ZM198.35-11.06L179.72-11.06 179.8-10.3Q180.07-9.2 180.71-8.37 181.36-7.54 182.24-6.98 183.12-6.42 184.19-6.14 185.27-5.86 186.36-5.86L186.36-5.86Q187.46-5.86 188.45-5.99 189.44-6.13 190.37-6.36 191.3-6.59 192.18-6.9 193.05-7.2 193.96-7.54L193.96-7.54 196.64-2.54Q195.25-1.68 194.09-1.09 192.93-0.49 191.76-0.1 190.59 0.29 189.27 0.48 187.95 0.66 186.19 0.66L186.19 0.66Q182.9 0.66 180.33-0.43 177.77-1.51 176.03-3.37 174.28-5.22 173.36-7.71 172.45-10.21 172.45-12.99L172.45-12.99Q172.45-15.77 173.41-18.21 174.38-20.65 176.13-22.47 177.89-24.29 180.33-25.34 182.78-26.39 185.75-26.39L185.75-26.39Q188.73-26.39 191.04-25.4 193.35-24.41 194.93-22.67 196.52-20.92 197.38-18.57 198.23-16.21 198.3-13.5L198.3-13.5Q198.38-12.89 198.39-12.29 198.4-11.69 198.35-11.06L198.35-11.06ZM185.56-20.29L185.56-20.29Q184.19-20.29 183.23-19.96 182.26-19.63 181.6-19.06 180.94-18.48 180.55-17.75 180.16-17.02 179.94-16.21L179.94-16.21 190.51-16.21Q190.34-17.04 190.03-17.77 189.71-18.51 189.15-19.07 188.59-19.63 187.72-19.96 186.85-20.29 185.56-20.29ZM225.06-25.24L225.06-16.09 218.2-16.09 218.2-18.7Q217.2-18.7 216.37-18.57 215.54-18.43 214.91-18.12 214.29-17.8 213.86-17.24 213.44-16.67 213.27-15.84L213.27-15.84 213.27-6.69 218.42-6.69 218.42 0 201.91 0 201.91-6.69 205.7-6.69 205.7-18.6 201.96-18.6 201.96-25.29 213.22-25.29 213.22-23.51Q214.29-24.37 215.63-24.83 216.98-25.29 218.56-25.29L218.56-25.29Q220.18-25.29 221.88-25.27 223.59-25.24 225.06-25.24L225.06-25.24ZM257.82-24.44L257.82-26.59Q257.69-27.44 257.22-28.2 256.74-28.96 256-29.5 255.25-30.05 254.31-30.37 253.37-30.69 252.35-30.69L252.35-30.69Q251.42-30.69 250.61-30.49 249.81-30.3 249.21-29.9 248.61-29.49 248.26-28.86 247.9-28.22 247.9-27.34L247.9-27.34Q247.9-26.25 248.38-25.6 248.86-24.95 249.6-24.54 250.35-24.12 251.25-23.88 252.15-23.63 253.01-23.34L253.01-23.34 259.72-21.09Q261.11-20.61 262.33-19.75 263.55-18.9 264.45-17.68 265.34-16.46 265.85-14.87 266.36-13.28 266.36-11.3L266.36-11.3Q266.36-8.62 265.37-6.4 264.38-4.17 262.6-2.59 260.82-1 258.33-0.12 255.84 0.76 252.81 0.76L252.81 0.76Q250.69 0.76 248.8 0.28 246.9-0.2 245.34-1.1 243.78-2 242.61-3.26 241.44-4.52 240.78-6.1L240.78-6.1 238.26-6.1 238.26-13.45 247.1-13.45 247.1-11.94Q247.1-10.84 247.45-9.91 247.81-8.98 248.52-8.3 249.22-7.62 250.3-7.24 251.37-6.86 252.81-6.86L252.81-6.86Q255.01-6.86 256.16-7.87 257.3-8.89 257.3-10.69L257.3-10.69Q257.3-11.62 256.9-12.24 256.5-12.87 255.86-13.29 255.23-13.72 254.45-14.01 253.67-14.31 252.91-14.55L252.91-14.55 247.32-16.36Q245.73-16.85 244.25-17.72 242.78-18.6 241.64-19.92 240.51-21.24 239.84-23.01 239.16-24.78 239.16-27.05L239.16-27.05Q239.16-29.69 240.14-31.75 241.12-33.81 242.88-35.23 244.63-36.65 247.05-37.38 249.47-38.11 252.35-38.11L252.35-38.11Q254.62-38.11 256.55-37.59 258.48-37.06 260-36.18 261.53-35.3 262.59-34.17 263.65-33.03 264.21-31.81L264.21-31.81 266.65-31.81 266.65-24.44 257.82-24.44ZM285.16 0L285.16-1.37Q284.3-0.83 283.6-0.45 282.89-0.07 282.18 0.16 281.47 0.39 280.71 0.5 279.96 0.61 279.05 0.61L279.05 0.61Q276.78 0.61 274.99-0.01 273.2-0.63 271.96-1.72 270.73-2.81 270.07-4.28 269.41-5.76 269.41-7.5L269.41-7.5Q269.41-9.25 270.08-10.74 270.75-12.23 272.02-13.29 273.29-14.36 275.14-14.95 276.98-15.55 279.35-15.55L279.35-15.55Q281.08-15.55 282.51-15.37 283.94-15.19 285.16-14.92L285.16-14.92 285.16-15.7Q285.16-16.65 284.79-17.35 284.43-18.04 283.77-18.49 283.11-18.95 282.18-19.15 281.25-19.36 280.15-19.36L280.15-19.36Q277.86-19.36 276.11-18.91 274.37-18.46 272.76-17.6L272.76-17.6 270.41-22.34Q272.9-24.05 275.62-24.95 278.35-25.85 281.4-25.85L281.4-25.85Q283.77-25.85 285.78-25.33 287.79-24.8 289.24-23.62 290.68-22.44 291.49-20.53 292.31-18.63 292.31-15.89L292.31-15.89 292.31-6.69 295.71-6.69 295.71 0 285.16 0ZM279.59-5.15L279.59-5.15Q281.33-5.15 282.74-5.71 284.16-6.27 285.16-7.08L285.16-7.08 285.16-10.3 279.3-10.3Q278.74-10.3 278.2-10.13 277.66-9.96 277.24-9.64 276.81-9.33 276.55-8.86 276.3-8.4 276.3-7.79L276.3-7.79Q276.3-6.67 277.11-5.91 277.93-5.15 279.59-5.15ZM299.9-18.6L299.9-25.29 313.11-25.29 313.11-18.6 310.03-18.6 314.16-7.74 318.14-18.6 315.4-18.6 315.4-25.29 328.61-25.29 328.61-18.6 325.24-18.6 317.7 0.1 310.25 0.1 302.71-18.6 299.9-18.6ZM356.74-11.06L338.11-11.06 338.18-10.3Q338.45-9.2 339.1-8.37 339.74-7.54 340.62-6.98 341.5-6.42 342.58-6.14 343.65-5.86 344.75-5.86L344.75-5.86Q345.85-5.86 346.84-5.99 347.82-6.13 348.75-6.36 349.68-6.59 350.56-6.9 351.44-7.2 352.34-7.54L352.34-7.54 355.03-2.54Q353.63-1.68 352.47-1.09 351.32-0.49 350.14-0.1 348.97 0.29 347.65 0.48 346.33 0.66 344.58 0.66L344.58 0.66Q341.28 0.66 338.72-0.43 336.15-1.51 334.41-3.37 332.66-5.22 331.75-7.71 330.83-10.21 330.83-12.99L330.83-12.99Q330.83-15.77 331.8-18.21 332.76-20.65 334.52-22.47 336.28-24.29 338.72-25.34 341.16-26.39 344.14-26.39L344.14-26.39Q347.12-26.39 349.42-25.4 351.73-24.41 353.32-22.67 354.9-20.92 355.76-18.57 356.61-16.21 356.69-13.5L356.69-13.5Q356.76-12.89 356.77-12.29 356.78-11.69 356.74-11.06L356.74-11.06ZM343.94-20.29L343.94-20.29Q342.58-20.29 341.61-19.96 340.65-19.63 339.99-19.06 339.33-18.48 338.94-17.75 338.55-17.02 338.33-16.21L338.33-16.21 348.9-16.21Q348.73-17.04 348.41-17.77 348.09-18.51 347.53-19.07 346.97-19.63 346.1-19.96 345.24-20.29 343.94-20.29ZM383.44-25.24L383.44-16.09 376.58-16.09 376.58-18.7Q375.58-18.7 374.75-18.57 373.92-18.43 373.3-18.12 372.68-17.8 372.25-17.24 371.82-16.67 371.65-15.84L371.65-15.84 371.65-6.69 376.8-6.69 376.8 0 360.3 0 360.3-6.69 364.08-6.69 364.08-18.6 360.35-18.6 360.35-25.29 371.6-25.29 371.6-23.51Q372.68-24.37 374.02-24.83 375.36-25.29 376.95-25.29L376.95-25.29Q378.56-25.29 380.27-25.27 381.98-25.24 383.44-25.24L383.44-25.24Z" opacity="1" transform="matrix(1,0,0,1,0,0)" fill="#ff5858" class="undefined-text-0" data-fill-palette-color="primary" id="text-0"></path></svg></g></svg></g></svg></g></svg></g><g transform="matrix(1,0,0,1,407.5954022282343,0)"><svg viewBox="0 0 70.68997220988126 70.68997220988126" height="70.68997220988126" width="70.68997220988126"><g><svg xmlns="http://www.w3.org/2000/svg" xmlns:xlink="http://www.w3.org/1999/xlink" version="1.0" x="0" y="0" viewBox="1 1 48 48" enable-background="new 0 0 50 50" xml:space="preserve" height="70.68997220988126" width="70.68997220988126" class="icon-icon-0" data-fill-palette-color="accent" id="icon-0"><g fill="#ed2647" data-fill-palette-color="accent"><g fill="#ed2647" data-fill-palette-color="accent"><rect x="1" y="1" fill="#ed2647" width="23" height="5" data-fill-palette-color="accent"></rect><rect x="1" y="10" fill="#ed2647" width="23" height="5" data-fill-palette-color="accent"></rect><rect x="1" y="19" fill="#ed2647" width="23" height="5" data-fill-palette-color="accent"></rect></g><g fill="#ed2647" data-fill-palette-color="accent"><rect x="26" y="26" fill="#ed2647" width="23" height="5" data-fill-palette-color="accent"></rect><rect x="26" y="35" fill="#ed2647" width="23" height="5" data-fill-palette-color="accent"></rect><rect x="26" y="44" fill="#ed2647" width="23" height="5" data-fill-palette-color="accent"></rect></g><g fill="#ed2647" data-fill-palette-color="accent"><rect x="19" y="26" fill="#ed2647" width="5" height="23" data-fill-palette-color="accent"></rect><rect x="10" y="26" fill="#ed2647" width="5" height="23" data-fill-palette-color="accent"></rect><rect x="1" y="26" fill="#ed2647" width="5" height="23" data-fill-palette-color="accent"></rect></g><g fill="#ed2647" data-fill-palette-color="accent"><rect x="44" y="1" fill="#ed2647" width="5" height="23" data-fill-palette-color="accent"></rect><rect x="35" y="1" fill="#ed2647" width="5" height="23" data-fill-palette-color="accent"></rect><rect x="26" y="1" fill="#ed2647" width="5" height="23" data-fill-palette-color="accent"></rect></g></g></svg></g></svg></g></svg></g><defs></defs></svg><rect width="395.52" height="58.45735475666282" fill="none" stroke="none" visibility="hidden"></rect></g></svg></g></svg>